<svg width="1200" height="320" viewBox="0 0 1200 320" fill="none" xmlns="http://www.w3.org/2000/svg">
  <rect width="1200" height="320" rx="56" fill="#07131A"/>
  <rect x="28" y="28" width="1144" height="264" rx="40" fill="url(#bg)" stroke="#163641" stroke-width="2"/>

  <g transform="translate(64 54)">
    <rect width="212" height="212" rx="52" fill="#0A1820"/>
    <rect x="12" y="12" width="188" height="188" rx="42" fill="url(#markbg)"/>
    <path d="M62 72C62 47 82 28 107 28H157" stroke="#39D4BA" stroke-width="18" stroke-linecap="round"/>
    <path d="M62 72V130C62 171 95 204 136 204H168" stroke="#E8FFF9" stroke-width="18" stroke-linecap="round" stroke-linejoin="round"/>
    <path d="M168 204C209 204 242 171 242 130V100" stroke="#7DD3FC" stroke-width="18" stroke-linecap="round" stroke-linejoin="round"/>
    <circle cx="177" cy="28" r="9" fill="#E8FFF9"/>
    <rect x="166" y="122" width="76" height="18" rx="9" fill="#0F766E"/>
  </g>

  <text x="336" y="148" fill="#F8FFFD" font-size="92" font-weight="700" font-family="Avenir Next, Helvetica Neue, Arial, sans-serif">SendLens</text>
  <text x="338" y="212" fill="#9FE8DB" font-size="34" font-weight="600" font-family="IBM Plex Sans, Arial, sans-serif">See what lands. Know what to change next.</text>
  <text x="338" y="252" fill="#D6E6E2" font-size="28" font-family="IBM Plex Sans, Arial, sans-serif">Private reasoning over your Instantly data.</text>

  <defs>
    <linearGradient id="bg" x1="46" y1="28" x2="1140" y2="286" gradientUnits="userSpaceOnUse">
      <stop stop-color="#0B1D23"/>
      <stop offset="1" stop-color="#102B35"/>
    </linearGradient>
    <linearGradient id="markbg" x1="26" y1="16" x2="178" y2="194" gradientUnits="userSpaceOnUse">
      <stop stop-color="#0D242D"/>
      <stop offset="1" stop-color="#153844"/>
    </linearGradient>
  </defs>
</svg>
